<?xml version="1.0" encoding="utf-8"?>
<svg viewBox="51.25 -0.039 47.426 66.352" width="106.178px" height="148.549px" xmlns="http://www.w3.org/2000/svg">
  <path style=" stroke:none;fill-rule:nonzero;fill:rgb(100%,100%,100%);fill-opacity:1;" d="M 72.93 45.867 C 72.902 44.203 74.121 42.832 75.648 42.801 L 75.711 42.801 C 77.098 42.801 77.887 43.121 79.5 44.09 L 80.77 41.668 C 79.297 40.512 77.527 39.891 75.711 39.895 C 72.598 39.738 69.957 42.355 69.816 45.738 L 69.816 45.824 C 69.816 51.965 78.531 54.855 78.531 59.367 C 78.578 60.395 78.242 61.398 77.598 62.156 C 76.957 62.914 76.063 63.363 75.113 63.402 L 74.914 63.402 C 73.234 63.398 71.594 62.836 70.219 61.785 L 68.949 64.207 C 70.676 65.57 72.758 66.309 74.891 66.313 C 78.363 66.313 81.633 63.895 81.633 59.461 C 81.652 52.707 72.93 50.031 72.93 45.867 Z M 89.977 32.938 C 89.957 32.137 90.234 31.363 90.746 30.785 C 91.254 30.203 91.957 29.871 92.695 29.855 L 92.754 29.855 C 94.145 29.855 94.93 30.18 96.543 31.148 L 97.813 28.727 C 96.344 27.57 94.57 26.945 92.754 26.953 C 89.641 26.797 87.004 29.414 86.863 32.793 L 86.863 32.875 C 86.863 39.016 95.578 41.902 95.578 46.414 C 95.609 47.438 95.266 48.434 94.621 49.18 C 93.977 49.93 93.086 50.367 92.145 50.402 L 91.961 50.402 C 90.277 50.398 88.641 49.836 87.262 48.785 L 85.992 51.207 C 87.719 52.57 89.801 53.309 91.938 53.313 C 95.406 53.313 98.676 50.895 98.676 46.465 C 98.691 39.781 89.977 37.063 89.977 32.938 Z M 61.066 38.723 L 54.281 38.723 L 54.281 27.711 L 51.25 27.711 L 51.25 52.629 L 54.281 52.629 L 54.281 41.613 L 61.066 41.613 L 61.066 52.629 L 64.098 52.629 L 64.098 27.711 L 61.066 27.711 L 61.066 38.723 Z M 69.336 32.867 L 69.336 27.652 L 68.004 27.652 L 67.426 28.695 L 68.355 28.695 L 68.355 32.867 L 69.336 32.867 Z M 71.676 31.277 C 71.73 32.184 72.426 32.887 73.262 32.887 C 74.098 32.887 74.789 32.184 74.848 31.277 C 74.859 30.824 74.676 30.391 74.352 30.105 C 74.598 29.836 74.73 29.469 74.73 29.09 C 74.73 28.199 74.063 27.477 73.242 27.477 C 72.422 27.477 71.758 28.199 71.758 29.09 C 71.754 29.469 71.891 29.836 72.137 30.105 C 71.824 30.398 71.652 30.828 71.676 31.277 Z M 73.266 28.523 C 73.547 28.535 73.77 28.785 73.77 29.09 C 73.77 29.395 73.543 29.637 73.266 29.637 C 72.984 29.637 72.762 29.395 72.762 29.09 C 72.77 28.793 72.992 28.559 73.266 28.551 L 73.266 28.523 Z M 73.266 30.641 C 73.539 30.672 73.746 30.926 73.738 31.227 C 73.727 31.527 73.508 31.77 73.234 31.781 C 72.957 31.793 72.719 31.574 72.684 31.277 C 72.695 30.934 72.949 30.656 73.266 30.641 Z M 77.391 33.086 L 78.973 30.664 C 79.277 30.27 79.461 29.781 79.492 29.266 C 79.434 28.313 78.703 27.574 77.824 27.574 C 76.945 27.574 76.215 28.313 76.156 29.266 C 76.148 30.145 76.762 30.883 77.566 30.961 L 76.594 32.391 L 77.391 33.086 Z M 77.172 29.348 C 77.172 28.934 77.484 28.598 77.863 28.598 C 78.246 28.598 78.555 28.934 78.555 29.348 C 78.555 29.754 78.254 30.082 77.879 30.082 C 77.484 30.078 77.164 29.742 77.145 29.316 L 77.172 29.348 Z M 83.734 29.051 C 83.762 28.156 83.121 27.41 82.301 27.379 C 81.48 27.348 80.789 28.047 80.762 28.938 L 80.727 29.219 L 81.719 29.219 L 81.719 29.051 C 81.742 28.777 81.961 28.574 82.211 28.59 C 82.352 28.582 82.484 28.637 82.586 28.742 C 82.684 28.848 82.738 28.996 82.73 29.145 C 82.73 29.301 82.73 29.656 82.105 29.656 L 81.848 29.656 L 81.848 30.664 L 82.094 30.664 C 82.27 30.637 82.445 30.691 82.582 30.816 C 82.707 30.949 82.77 31.137 82.762 31.324 C 82.77 31.492 82.719 31.66 82.617 31.789 C 82.512 31.914 82.367 31.992 82.211 32.004 L 82.16 32.004 C 81.859 32.023 81.594 31.793 81.551 31.469 L 81.551 31.254 L 80.582 31.254 L 80.582 31.469 C 80.664 32.41 81.414 33.109 82.281 33.055 C 83.148 33 83.82 32.211 83.801 31.27 C 83.816 30.824 83.652 30.395 83.355 30.09 C 83.605 29.813 83.742 29.438 83.734 29.051 Z M 87.184 19.027 L 87.359 18.953 L 93.93 6.738 L 93.691 6.457 C 92.965 5.719 91.902 5.512 90.984 5.93 C 90.781 6.004 90.578 6.094 90.383 6.195 C 90.223 6.309 90.039 6.371 89.848 6.383 C 89.664 6.352 89.484 6.305 89.309 6.238 C 88.875 6.074 88.418 6 87.961 6.02 C 87.32 6.027 86.715 6.34 86.305 6.875 C 85.891 7.457 85.73 8.207 85.875 8.926 C 85.945 9.32 86.07 9.699 86.246 10.055 C 86.379 10.254 86.43 10.504 86.387 10.75 C 86.305 10.949 86.152 11.109 85.965 11.184 C 85.402 11.426 84.77 11.344 84.277 10.965 C 83.594 10.434 83.055 9.711 82.715 8.875 L 82.426 8.148 L 81.875 8.668 C 81.211 9.27 80.418 9.672 79.566 9.844 C 79.074 9.965 78.563 9.789 78.223 9.383 C 77.965 9.016 77.883 8.539 78 8.094 C 78.148 7.813 78.379 7.594 78.652 7.473 C 79.449 7.105 79.969 6.258 79.973 5.316 C 79.938 4.258 79.34 3.316 78.445 2.898 C 78.328 2.828 78.215 2.75 78.109 2.664 C 78.02 2.512 77.945 2.352 77.887 2.188 C 77.648 1.379 77.203 -0.039 75.473 -0.039 C 73.746 0 73.301 1.453 73.063 2.227 C 73.02 2.398 72.961 2.566 72.887 2.727 C 72.777 2.82 72.664 2.898 72.543 2.969 C 71.648 3.387 71.051 4.332 71.016 5.391 C 71.02 6.332 71.539 7.176 72.336 7.543 C 72.609 7.668 72.84 7.887 72.988 8.168 C 73.113 8.609 73.035 9.09 72.781 9.465 C 72.441 9.863 71.934 10.035 71.445 9.926 C 70.594 9.73 69.801 9.301 69.141 8.684 L 68.586 8.168 L 68.293 8.891 C 67.949 9.715 67.406 10.422 66.719 10.934 C 66.227 11.305 65.598 11.383 65.039 11.145 C 64.855 11.074 64.707 10.922 64.633 10.723 C 64.59 10.48 64.641 10.23 64.773 10.031 C 64.949 9.676 65.074 9.297 65.145 8.902 C 65.285 8.18 65.129 7.43 64.715 6.852 C 64.305 6.313 63.699 5.996 63.055 5.988 C 62.598 5.973 62.145 6.043 61.711 6.207 C 61.535 6.27 61.352 6.32 61.168 6.352 C 60.98 6.34 60.793 6.277 60.633 6.164 C 60.457 6.063 60.273 5.977 60.086 5.898 C 59.145 5.461 58.059 5.68 57.328 6.457 L 57.059 6.77 L 63.582 18.988 L 63.746 19.059 C 67.477 20.629 71.441 21.43 75.441 21.426 C 79.457 21.426 83.441 20.613 87.184 19.027 Z M 58.449 6.965 C 58.859 6.836 59.297 6.852 59.699 7.004 C 59.859 7.063 60.02 7.133 60.172 7.215 C 60.512 7.426 60.902 7.523 61.297 7.496 C 61.547 7.461 61.797 7.398 62.039 7.313 C 62.355 7.188 62.691 7.133 63.027 7.148 C 63.352 7.156 63.66 7.32 63.867 7.594 C 64.074 7.906 64.148 8.305 64.066 8.684 C 64.004 8.965 63.906 9.238 63.77 9.488 C 63.531 9.914 63.441 10.418 63.523 10.91 C 63.652 11.488 64.027 11.961 64.535 12.184 C 65.41 12.582 66.41 12.484 67.211 11.926 C 67.93 11.457 68.535 10.805 68.969 10.023 C 69.68 10.559 70.492 10.906 71.348 11.047 C 72.176 11.242 73.035 10.938 73.594 10.25 C 74.152 9.559 74.324 8.598 74.047 7.73 C 73.824 7.191 73.426 6.758 72.93 6.512 C 72.461 6.355 72.137 5.891 72.129 5.359 C 72.129 4.656 72.543 4.332 73.141 3.953 C 73.383 3.82 73.605 3.637 73.785 3.414 C 73.938 3.164 74.051 2.891 74.129 2.605 C 74.395 1.727 74.625 1.188 75.5 1.18 C 76.363 1.18 76.594 1.727 76.859 2.605 C 76.938 2.891 77.051 3.164 77.203 3.414 C 77.383 3.637 77.605 3.82 77.848 3.953 C 78.438 4.332 78.859 4.664 78.859 5.359 C 78.848 5.891 78.527 6.355 78.059 6.512 C 77.563 6.758 77.172 7.191 76.949 7.73 C 76.703 8.559 76.848 9.461 77.336 10.152 C 77.898 10.863 78.766 11.203 79.617 11.047 C 80.469 10.906 81.277 10.555 81.98 10.023 C 82.395 10.809 82.98 11.477 83.684 11.965 C 84.48 12.535 85.484 12.637 86.363 12.242 C 86.883 12.02 87.266 11.539 87.398 10.949 C 87.477 10.461 87.391 9.953 87.152 9.531 C 87.023 9.277 86.93 9.004 86.879 8.723 C 86.797 8.34 86.875 7.934 87.094 7.617 C 87.301 7.344 87.605 7.18 87.934 7.172 C 88.27 7.16 88.609 7.215 88.93 7.344 C 89.168 7.43 89.418 7.492 89.672 7.527 C 90.074 7.574 90.477 7.48 90.828 7.262 C 90.984 7.18 91.145 7.113 91.305 7.051 C 91.707 6.895 92.145 6.879 92.555 7.004 L 86.742 17.754 C 79.48 14.824 71.488 14.824 64.223 17.754 L 58.449 6.965 Z M 75.488 16.75 C 78.855 16.746 82.203 17.336 85.398 18.496 C 82.203 19.652 78.855 20.242 75.488 20.238 C 72.117 20.242 68.77 19.652 65.574 18.496 C 68.77 17.336 72.117 16.746 75.488 16.75 Z"/>
</svg>