<?xml version="1.0" encoding="utf-8"?>
<svg viewBox="40.4576 7.3209 1180.0424 169.1791" xmlns="http://www.w3.org/2000/svg">
  <path fill="none" opacity="1.000000" strokeLinecap="round" strokeLinejoin="round" strokeWidth="6.000000" d=" M130.500000,42.500000 C132.941528,40.740898 135.088943,38.780006 136.557419,36.030670 C137.705902,33.880451 139.243942,31.981007 137.498184,29.501274 C135.914185,27.251320 133.742279,26.611423 131.005188,26.424170 C121.263123,25.757683 112.527885,29.309196 104.049423,33.110241 C88.545555,40.060898 74.470116,49.385357 62.020084,61.021488 C58.504608,64.307144 55.272125,67.757095 53.414391,72.466225 C50.665798,79.433578 51.670937,82.516495 58.495960,85.509209 C65.694611,88.665749 73.432648,89.843567 81.019394,91.405823 C92.232224,93.714745 103.384300,96.089378 114.000740,100.498215 C117.171089,101.814827 120.010818,103.687408 122.477272,106.023987 C127.367661,110.656860 127.741570,116.294151 124.025528,122.016579 C119.341797,129.229187 112.414726,134.095261 105.392166,138.320786 C94.000862,145.175003 81.969223,150.913696 69.030457,154.606705 C63.037445,156.317245 57.050594,156.881561 51.006451,156.416214 C42.388401,155.752701 38.400143,148.564835 41.503532,140.001282 C44.705231,131.166428 51.059845,124.363495 56.616184,117.088737 C57.792320,115.548843 58.283669,113.215111 60.500000,112.500000 " style="stroke: rgb(255, 255, 255);"/>
  <path fill="none" opacity="1.000000" strokeLinecap="round" strokeLinejoin="round" strokeWidth="5.000000" d=" M1035.000000,76.000000 C1033.901733,65.992020 1033.986328,55.856598 1031.539307,45.990238 C1030.552856,42.012451 1029.460938,38.114212 1027.499023,34.500561 C1024.295044,28.599205 1020.089355,27.722820 1015.008850,32.010517 C1007.353027,38.471748 1002.375671,46.981556 997.530701,55.517429 C984.822144,77.907280 973.828430,101.075798 965.384033,125.459846 C962.711121,133.178177 961.391968,141.068832 960.629150,149.012405 C959.354858,162.282104 969.589905,169.864594 982.510193,166.034454 C995.298706,162.243362 1005.709106,154.446991 1015.967285,146.457977 C1029.586182,135.851562 1041.970459,123.859169 1054.007202,111.507027 C1055.669922,109.800819 1057.153687,107.715866 1060.000000,108.000000 " style="stroke: rgb(255, 255, 255);"/>
  <path fill="none" opacity="1.000000" strokeLinecap="round" strokeLinejoin="round" strokeWidth="4.000000" d=" M549.000000,46.500000 C548.265503,53.389378 544.861023,59.454357 542.894653,65.968193 C539.088379,78.576996 534.787415,91.042702 530.395264,103.462967 C529.545410,105.866142 531.116821,107.429314 531.101929,109.500732 C531.064392,114.739716 529.944763,119.828400 529.507141,125.000603 C528.631653,135.347305 528.294617,145.677811 531.516174,155.744827 C533.987488,163.467560 536.869995,165.831924 542.502319,165.545258 C545.745728,165.380173 547.866943,163.317673 549.949341,161.443695 C555.886719,156.100662 560.073425,149.357910 563.976379,142.486603 C574.668518,123.662933 583.461426,103.983482 590.532104,83.511086 C596.312378,66.775040 601.754944,49.956089 601.419678,32.001499 C601.228394,21.758217 596.873718,13.544060 587.505371,8.490005 C583.329407,6.237101 581.377502,7.067156 578.500000,12.500000 " style="stroke: rgb(255, 255, 255);"/>
  <path fill="none" opacity="1.000000" strokeLinecap="round" strokeLinejoin="round" strokeWidth="6.000000" d=" M511.500000,44.500000 C511.065704,49.086338 508.217468,52.694664 506.607147,56.792103 C503.883606,63.722088 501.534760,70.834656 499.562073,78.017052 C495.446747,93.000595 491.090485,107.936417 489.446716,123.494370 C488.668457,130.860474 487.202026,138.106384 489.434723,145.519653 C491.127960,151.141769 494.200104,152.634109 498.997650,149.496429 C502.809998,147.003113 504.868561,143.026047 507.552612,139.540512 C513.997925,131.170639 518.562500,121.730759 523.463562,112.480690 C524.966309,109.644440 526.287048,106.793678 529.500000,105.500000 " style="stroke: rgb(255, 255, 255);"/>
  <path fill="none" opacity="1.000000" strokeLinecap="round" strokeLinejoin="round" strokeWidth="5.000000" d=" M394.000000,89.500000 C384.184631,86.711594 377.543488,92.256691 371.590637,98.585266 C367.690308,102.731758 364.877228,107.653107 363.335693,113.456352 C361.738403,119.469589 363.084290,124.295174 367.058136,128.444321 C371.249695,132.820740 376.943176,132.387634 381.958954,130.864822 C393.289948,127.424690 402.868866,121.187233 409.521759,111.014236 C412.462097,106.518135 412.309448,104.855087 408.000000,101.000000 " style="stroke: rgb(255, 255, 255);"/>
  <path fill="none" opacity="1.000000" strokeLinecap="round" strokeLinejoin="round" strokeWidth="5.000000" d=" M882.500000,133.500000 C880.456665,133.224945 878.983276,134.084915 877.466187,135.462753 C868.171509,143.904312 859.274597,152.708206 852.032837,163.023056 C850.082825,165.800690 846.993652,169.613235 849.740112,172.249878 C852.717285,175.108032 856.547363,171.413757 858.877991,169.361420 C866.416992,162.722427 872.379822,154.661194 877.509277,146.005493 C879.850952,142.054123 881.423035,137.586227 883.487061,133.762939 C886.100525,128.921997 888.197998,122.691093 894.910645,120.253967 C899.059204,118.747795 902.446045,114.965973 905.973633,111.968987 C911.291687,107.450943 917.280640,103.925896 922.970154,99.957253 C923.864014,99.333725 924.666992,99.668228 925.500000,99.500000 " style="stroke: rgb(255, 255, 255);"/>
  <path fill="none" opacity="1.000000" strokeLinecap="round" strokeLinejoin="round" strokeWidth="5.000000" d=" M1158.000000,47.250000 C1143.831177,73.373688 1132.718018,100.800850 1123.633057,129.042801 C1122.080322,133.869507 1120.574219,138.814484 1119.819214,143.973557 C1119.266235,147.753433 1120.320801,148.427643 1123.500000,148.000000 " style="stroke: rgb(255, 255, 255);"/>
  <path fill="none" opacity="1.000000" strokeLinecap="round" strokeLinejoin="round" strokeWidth="5.000000" d=" M826.000000,90.000000 C820.661194,90.757217 817.499939,95.258049 813.039917,97.576736 C807.136353,100.645851 802.015198,105.135818 795.017700,106.125069 C792.161499,106.528847 790.021057,109.608360 789.681030,112.025467 C788.210144,122.481552 783.075317,131.637299 779.907593,141.470230 C776.482544,152.101746 772.313354,162.492828 768.530151,173.010834 C768.139465,174.096954 768.166687,175.333328 768.000000,176.500000 " style="stroke: rgb(255, 255, 255);"/>
  <path fill="none" opacity="1.000000" strokeLinecap="round" strokeLinejoin="round" strokeWidth="5.000000" d=" M234.500000,44.500000 C233.032791,47.606194 229.657166,48.874168 227.871735,51.924938 C223.329376,59.686619 218.434021,67.646790 216.455780,76.106583 C214.491562,84.506401 210.300140,91.439384 207.142242,99.058952 C204.147522,106.284836 202.147079,113.948708 200.062836,121.517303 C198.572784,126.928253 197.926804,132.575272 196.368134,137.961838 C195.769836,140.029434 196.690140,141.666672 196.497772,143.500000 C197.500000,143.500000 198.500000,143.500000 199.500000,143.500000 " style="stroke: rgb(255, 255, 255);"/>
  <path fill="none" opacity="1.000000" strokeLinecap="round" strokeLinejoin="round" strokeWidth="5.000000" d=" M709.000000,89.500000 C707.984131,86.304703 706.480164,85.479973 702.941162,86.847740 C698.162537,88.694588 693.678406,90.427628 691.187744,95.465256 C694.453735,101.678062 702.333435,102.551193 705.455933,108.591064 C695.921997,114.936310 683.257202,117.654495 678.265625,130.524384 C683.310791,132.486191 687.086182,130.703094 691.022766,129.054352 C696.147034,126.908173 700.817566,124.201088 704.486694,119.988419 C707.215149,116.855812 708.311523,113.401649 705.749084,109.130432 C710.692993,106.573013 715.529297,103.889557 720.543823,101.595833 C721.922119,100.965363 723.833313,101.500000 725.500000,101.500000 " style="stroke: rgb(255, 255, 255);"/>
  <path fill="none" opacity="1.000000" strokeLinecap="round" strokeLinejoin="round" strokeWidth="5.000000" d=" M321.000000,98.500000 C316.452942,103.427269 310.761169,107.169060 304.863800,109.680138 C300.246765,111.646049 297.576050,115.369934 296.848999,118.579063 C294.535065,128.792633 288.480530,136.694717 282.947205,144.964676 C277.920929,152.476807 272.285034,159.485855 264.546295,164.570480 C261.795654,166.377777 259.173492,167.954788 256.038391,166.421478 C254.006882,165.427933 253.772369,159.578888 255.528885,156.516571 C258.445770,151.431290 262.020264,146.790192 266.019104,142.517868 C273.795013,134.210114 282.414246,126.828598 291.543671,120.058899 C292.703064,119.199181 294.106049,117.560501 296.000000,119.000000 " style="stroke: rgb(255, 255, 255);"/>
  <path fill="none" opacity="1.000000" strokeLinecap="round" strokeLinejoin="round" strokeWidth="5.000000" d=" M859.000000,91.000000 C861.132507,95.948723 857.881592,100.358612 857.194397,104.954300 C856.712708,108.175461 856.590149,111.352615 856.604126,114.499535 C856.621338,118.376221 860.621521,121.154205 864.991211,120.445755 C870.483215,119.555344 875.449280,117.259926 880.029175,114.041550 C882.056824,112.616692 883.033936,110.264130 882.786438,108.530487 C882.405640,105.863342 882.358215,103.727524 883.970215,101.478645 C887.215393,96.951172 890.991150,93.087265 895.983643,90.468826 C897.417419,89.716858 898.827271,90.226334 899.383667,91.076172 C900.044739,92.085777 900.465454,94.354950 899.891602,94.882004 C897.273865,97.286194 897.118652,101.499130 892.583435,102.792496 C889.343994,103.716347 887.790588,108.620308 883.500000,109.000000 " style="stroke: rgb(255, 255, 255);"/>
  <path fill="none" opacity="1.000000" strokeLinecap="round" strokeLinejoin="round" strokeWidth="5.000000" d=" M822.500000,47.500000 C822.521484,51.221756 820.801514,53.562790 817.568909,55.608852 C812.189392,59.013824 810.206360,65.188332 807.626526,70.560753 C803.169922,79.841499 799.427551,89.470642 795.555298,99.022430 C794.680786,101.179710 794.061340,103.556381 794.500000,106.000000 " style="stroke: rgb(255, 255, 255);"/>
  <path fill="none" opacity="1.000000" strokeLinecap="round" strokeLinejoin="round" strokeWidth="5.000000" d=" M698.500000,46.500000 C695.250305,56.436153 689.368958,65.102127 684.964844,74.483498 C681.576416,81.701332 677.006714,88.347420 674.492737,95.997620 C674.213074,96.848602 673.340332,97.858772 673.578369,98.469444 C675.399597,103.142754 673.143921,107.305870 671.927551,111.478874 C668.872742,121.958290 667.595459,132.663971 666.984863,143.499146 C666.846680,145.952530 667.356201,148.046021 669.500000,149.500000 " style="stroke: rgb(255, 255, 255);"/>
  <path fill="none" opacity="1.000000" strokeLinecap="round" strokeLinejoin="round" strokeWidth="5.000000" d=" M631.000000,89.000000 C623.167419,91.683624 620.046692,99.385109 614.474854,104.472466 C610.951050,107.689903 608.465271,112.374542 602.744995,112.995499 C601.017395,104.578903 606.142944,98.306778 609.500000,91.500000 " style="stroke: rgb(255, 255, 255);"/>
  <path fill="none" opacity="1.000000" strokeLinecap="round" strokeLinejoin="round" strokeWidth="5.000000" d=" M254.500000,86.500000 C254.271683,88.328110 253.472885,89.152290 251.604477,90.188408 C246.486771,93.026390 243.387238,98.236687 239.548538,102.543266 C235.860779,106.680557 232.355392,110.915146 226.492767,113.417023 C223.925018,104.577713 229.475433,98.361931 232.500000,91.500000 " style="stroke: rgb(255, 255, 255);"/>
  <path fill="none" opacity="1.000000" strokeLinecap="round" strokeLinejoin="round" strokeWidth="5.000000" d=" M1097.500000,95.000000 C1094.483276,94.588066 1092.896973,96.754135 1090.981445,98.479370 C1083.510864,105.207481 1076.713867,112.715866 1068.032471,118.052826 C1066.053345,119.269615 1064.107300,120.173843 1062.033325,119.180389 C1059.912964,118.164703 1060.620117,115.871414 1060.488647,114.000801 C1060.127930,108.872589 1061.351318,104.549095 1065.437256,100.929138 C1069.749023,97.109024 1072.772583,91.982964 1077.479614,88.472595 C1079.158325,87.220619 1078.366577,85.206657 1078.500000,83.500000 " style="stroke: rgb(255, 255, 255);"/>
  <path fill="none" opacity="1.000000" strokeLinecap="round" strokeLinejoin="round" strokeWidth="6.000000" d=" M302.000000,110.500000 C302.010681,109.000000 301.278839,107.661659 301.923981,105.970993 C304.262665,99.841942 300.852325,94.688690 298.415558,89.539970 C296.913147,86.365494 293.539886,86.849342 291.588501,88.598732 C284.220062,95.204483 279.764801,103.725563 276.376129,112.954514 C275.473480,115.412811 278.655945,116.848114 277.000000,119.000000 " style="stroke: rgb(255, 255, 255);"/>
  <path fill="none" opacity="1.000000" strokeLinecap="round" strokeLinejoin="round" strokeWidth="5.000000" d=" M417.500000,72.500000 C419.147339,69.719955 419.230194,66.547348 416.881622,64.646263 C414.564789,62.770866 411.410980,63.833832 409.019714,65.527809 C400.913727,71.270088 396.533508,79.269897 394.921417,88.986961 C394.689362,90.385674 396.031342,91.233620 395.500000,92.500000 " style="stroke: rgb(255, 255, 255);"/>
  <path fill="none" opacity="1.000000" strokeLinecap="round" strokeLinejoin="round" strokeWidth="6.000000" d=" M676.000000,88.500000 C672.286499,86.569267 669.242676,87.575874 666.486877,90.487579 C660.472229,96.842491 657.247314,104.800629 653.386597,112.442703 C651.840698,115.502609 653.515869,118.187210 653.000000,121.000000 " style="stroke: rgb(255, 255, 255);"/>
  <path fill="none" opacity="1.000000" strokeLinecap="round" strokeLinejoin="round" strokeWidth="5.000000" d=" M1220.500000,82.000000 C1215.556152,80.983017 1212.077515,84.252205 1208.567627,86.601059 C1201.382690,91.409348 1194.280762,96.445480 1188.531860,103.027824 C1186.594727,105.245865 1184.406982,106.352165 1181.500366,105.997269 C1178.004639,105.570435 1175.333374,106.729721 1172.941772,109.448738 C1169.242310,113.654526 1164.611694,116.904121 1159.928467,119.887688 C1157.375488,121.514114 1153.966797,122.333496 1151.037476,120.441971 C1148.122192,118.559532 1148.607544,115.236168 1149.098511,112.517799 C1149.998413,107.536369 1150.694946,102.568733 1155.881348,99.311119 C1159.025391,97.336403 1160.919434,93.426430 1163.550293,90.545937 C1164.316650,89.706886 1163.878052,89.193092 1163.750000,88.500000 " style="stroke: rgb(255, 255, 255);"/>
  <path fill="none" opacity="1.000000" strokeLinecap="round" strokeLinejoin="round" strokeWidth="5.000000" d=" M234.250000,47.000000 C236.627899,52.892410 233.168472,57.663464 230.897003,62.451138 C228.344910,67.830307 225.056244,72.867218 221.974091,77.984398 C220.619812,80.232849 219.209763,82.613029 216.000000,82.500000 " style="stroke: rgb(255, 255, 255);"/>
  <path fill="none" opacity="1.000000" strokeLinecap="round" strokeLinejoin="round" strokeWidth="6.000000" d=" M163.500000,92.000000 C160.030167,87.014542 158.079681,86.520943 154.051956,90.551910 C148.076660,96.531990 143.598099,103.609077 140.542328,111.516357 C140.072372,112.732483 139.875687,114.209496 140.064240,115.490547 C140.394760,117.736206 141.890396,119.329994 143.944992,117.440201 C151.312042,110.664108 158.945145,104.045280 162.979248,94.491241 C163.239304,93.875366 162.677994,93.002831 163.500000,92.500000 " style="stroke: rgb(255, 255, 255);"/>
  <path fill="none" opacity="1.000000" strokeLinecap="round" strokeLinejoin="round" strokeWidth="5.000000" d=" M157.500000,106.000000 C158.442780,108.106964 158.537140,110.595848 157.847885,112.443245 C156.564697,115.882568 157.584473,119.165947 159.692902,120.741913 C161.565735,122.141785 165.110672,121.107658 167.477295,119.467247 C170.899353,117.095253 174.260422,114.612679 177.459381,111.951180 C178.997070,110.671844 180.355270,109.377197 182.500000,109.500000 " style="stroke: rgb(255, 255, 255);"/>
  <path fill="none" opacity="1.000000" strokeLinecap="round" strokeLinejoin="round" strokeWidth="5.000000" d=" M795.500000,82.000000 C790.330444,81.159401 786.804871,84.555672 783.027649,87.042023 C775.782288,91.811394 768.901245,97.070580 762.995361,103.495728 C761.781616,104.816185 760.525696,106.112923 758.500000,106.000000 " style="stroke: rgb(255, 255, 255);"/>
  <path fill="none" opacity="1.000000" strokeLinecap="round" strokeLinejoin="round" strokeWidth="5.000000" d=" M835.000000,77.500000 C827.825867,85.733315 825.946167,96.474312 821.489685,105.995171 C818.322021,112.762596 815.151001,119.518219 814.000000,127.000000 " style="stroke: rgb(255, 255, 255);"/>
  <path fill="none" opacity="1.000000" strokeLinecap="round" strokeLinejoin="round" strokeWidth="5.000000" d=" M264.500000,119.500000 C263.067413,112.851341 264.911743,106.440758 266.066864,100.012016 C266.530121,97.433853 266.882751,95.111984 265.084564,92.966980 C254.569321,97.222420 249.542511,106.368355 244.500000,115.500000 " style="stroke: rgb(255, 255, 255);"/>
  <path fill="none" opacity="1.000000" strokeLinecap="round" strokeLinejoin="round" strokeWidth="6.000000" d=" M1120.000000,85.500000 C1119.580078,99.443588 1112.941284,112.401260 1113.500000,126.500000 " style="stroke: rgb(255, 255, 255);"/>
  <path fill="none" opacity="1.000000" strokeLinecap="round" strokeLinejoin="round" strokeWidth="4.000000" d=" M1148.000000,65.000000 C1138.933472,63.536732 1130.020996,66.073914 1121.007446,66.298210 C1118.292847,66.365768 1115.666626,64.149742 1113.000000,66.000000 " style="stroke: rgb(255, 255, 255);"/>
  <path fill="none" opacity="1.000000" strokeLinecap="round" strokeLinejoin="round" strokeWidth="5.000000" d=" M641.500000,119.500000 C639.943237,112.516174 641.853271,105.785332 643.004211,99.000710 C643.364685,96.876068 644.168152,94.694191 641.961609,92.992119 C640.995850,93.320786 639.769775,93.399399 639.035828,94.041000 C632.739929,99.544930 625.873596,104.583679 622.970886,112.989952 C622.600220,114.063370 621.833313,115.000000 621.250000,116.000000 " style="stroke: rgb(255, 255, 255);"/>
  <path fill="none" opacity="1.000000" strokeLinecap="round" strokeLinejoin="round" strokeWidth="5.000000" d=" M440.500000,88.500000 C435.097260,86.560547 429.844696,88.437897 425.073853,90.199966 C418.864899,92.493195 412.737946,95.281540 407.873627,100.379425 C405.143158,103.241013 400.976807,104.583862 397.899292,107.389519 C396.521179,108.645836 395.746521,109.976555 395.000000,111.500000 " style="stroke: rgb(255, 255, 255);"/>
  <path fill="none" opacity="1.000000" strokeLinecap="round" strokeLinejoin="round" strokeWidth="4.000000" d=" M1152.000000,62.000000 C1153.314331,63.056999 1154.752441,63.728603 1156.500244,63.501694 C1165.148071,62.378994 1173.814087,62.162895 1182.500000,63.000000 " style="stroke: rgb(255, 255, 255);"/>
  <path fill="none" opacity="1.000000" strokeLinecap="round" strokeLinejoin="round" strokeWidth="5.000000" d=" M767.000000,75.500000 C764.595947,84.047867 760.068787,92.068916 758.419739,100.581314 C756.906921,108.390923 753.183350,114.696823 750.000000,121.500000 " style="stroke: rgb(255, 255, 255);"/>
  <path fill="none" opacity="1.000000" strokeLinecap="round" strokeLinejoin="round" strokeWidth="5.000000" d=" M1192.000000,75.500000 C1189.015137,84.700317 1186.581177,94.109344 1181.542480,102.525429 C1181.057861,103.335022 1181.166626,104.500000 1181.000000,105.500000 " style="stroke: rgb(255, 255, 255);"/>
  <path fill="none" opacity="1.000000" strokeLinecap="round" strokeLinejoin="round" strokeWidth="5.000000" d=" M673.000000,98.500000 C667.232788,101.236633 666.119324,107.608093 662.428528,111.939102 C659.924805,114.877213 658.926941,119.557762 654.000000,120.000000 " style="stroke: rgb(255, 255, 255);"/>
  <path fill="none" opacity="1.000000" strokeLinecap="round" strokeLinejoin="round" strokeWidth="6.000000" d=" M300.500000,96.000000 C296.371552,96.940781 294.897491,100.781708 292.570984,103.559448 C289.152435,107.641037 285.847473,111.801292 282.010529,115.510902 C280.864777,116.618637 279.790771,117.748199 278.000000,117.500000 " style="stroke: rgb(255, 255, 255);"/>
  <path fill="none" opacity="1.000000" strokeLinecap="round" strokeLinejoin="round" strokeWidth="5.000000" d=" M194.500000,88.500000 C191.500000,94.333336 188.632919,100.240120 185.461761,105.978867 C182.428024,111.468895 183.000809,117.904991 180.500000,123.500000 " style="stroke: rgb(255, 255, 255);"/>
  <path fill="none" opacity="1.000000" strokeLinecap="round" strokeLinejoin="round" strokeWidth="6.000000" d=" M749.500000,87.500000 C746.416687,93.333328 743.919617,99.592316 740.082153,104.878151 C736.378784,109.979309 730.969116,113.679054 725.955139,117.258842 C721.958130,115.488144 722.995728,112.303932 723.618469,110.032471 C725.723511,102.353844 729.013428,95.130280 733.500000,88.500000 " style="stroke: rgb(255, 255, 255);"/>
  <path fill="none" opacity="1.000000" strokeLinecap="round" strokeLinejoin="round" strokeWidth="5.000000" d=" M1118.000000,90.000000 C1111.827393,90.649849 1109.444214,96.478928 1105.064697,99.591064 C1102.812012,101.191826 1101.054932,103.429558 1098.000000,103.500000 " style="stroke: rgb(255, 255, 255);"/>
  <path fill="none" opacity="1.000000" strokeLinecap="round" strokeLinejoin="round" strokeWidth="5.000000" d=" M847.000000,87.499992 C845.666626,90.166664 843.752747,92.700150 843.104980,95.524071 C840.831177,105.436714 833.167358,112.070381 828.500000,120.500000 " style="stroke: rgb(255, 255, 255);"/>
  <path fill="none" opacity="1.000000" strokeLinecap="round" strokeLinejoin="round" strokeWidth="5.000000" d=" M896.000000,102.500000 C897.726440,106.318062 895.729980,109.741203 894.348999,112.934692 C893.262390,115.447388 892.373352,117.788445 892.500000,120.500000 " style="stroke: rgb(255, 255, 255);"/>
  <path fill="none" opacity="1.000000" strokeLinecap="round" strokeLinejoin="round" strokeWidth="5.000000" d=" M862.500000,88.500000 C857.081177,90.121735 852.846863,93.481735 848.969238,97.470078 C847.023987,99.470848 845.438965,102.219879 842.000000,102.000000 " style="stroke: rgb(255, 255, 255);"/>
  <path fill="none" opacity="1.000000" strokeLinecap="round" strokeLinejoin="round" strokeWidth="8.000000" d=" M1103.000000,85.500000 C1099.892700,91.464546 1098.610840,97.898918 1096.953979,104.359993 C1095.561523,109.790016 1090.279541,114.577332 1087.250000,120.000000 " style="stroke: rgb(255, 255, 255);"/>
  <path fill="none" opacity="1.000000" strokeLinecap="round" strokeLinejoin="round" strokeWidth="5.000000" d=" M739.000000,108.500000 C739.000000,113.500000 739.000000,118.500000 739.000000,123.500000 " style="stroke: rgb(255, 255, 255);"/>
  <path fill="none" opacity="1.000000" strokeLinecap="round" strokeLinejoin="round" strokeWidth="5.000000" d=" M1181.000000,106.500000 C1180.963867,112.285568 1177.366211,116.646469 1175.000000,121.500000 " style="stroke: rgb(255, 255, 255);"/>
  <path fill="none" opacity="1.000000" strokeLinecap="round" strokeLinejoin="round" strokeWidth="5.000000" d=" M820.000000,55.500000 C821.885803,60.221447 818.271362,63.567837 817.000000,67.500000 " style="stroke: rgb(255, 255, 255);"/>
  <path fill="none" opacity="1.000000" strokeLinecap="round" strokeLinejoin="round" strokeWidth="6.000000" d=" M789.000000,111.500000 C784.805847,110.673584 781.533020,114.085190 777.500000,114.000000 " style="stroke: rgb(255, 255, 255);"/>
  <path fill="none" opacity="1.000000" strokeLinecap="round" strokeLinejoin="round" strokeWidth="4.000000" d=" M202.500000,69.500000 C202.711578,72.643181 198.868240,73.894066 199.000000,77.000000 " style="stroke: rgb(255, 255, 255);"/>
</svg>